<mxfile host="65bd71144e" pages="7">
    <diagram name="BDATS - SEM 3" id="bAWRMhxbK4lThoLXx4Rh">
        <mxGraphModel dx="2598" dy="1368" grid="1" gridSize="10" guides="0" tooltips="1" connect="1" arrows="1" fold="1" page="1" pageScale="1" pageWidth="1169" pageHeight="1654" math="0" shadow="0">
            <root>
                <mxCell id="z80Zeq63Nkb3A3HY7hVA-0"/>
                <mxCell id="z80Zeq63Nkb3A3HY7hVA-1" parent="z80Zeq63Nkb3A3HY7hVA-0"/>
                <mxCell id="z80Zeq63Nkb3A3HY7hVA-22" value="&lt;font style=&quot;font-size: 17px;&quot;&gt;&lt;b&gt;Thursday L6 CYBER&lt;/b&gt;&lt;/font&gt;" style="rounded=1;whiteSpace=wrap;html=1;fillColor=#d5e8d4;strokeColor=#82b366;" parent="z80Zeq63Nkb3A3HY7hVA-1" vertex="1">
                    <mxGeometry x="1120" y="380" width="420" height="40" as="geometry"/>
                </mxCell>
                <mxCell id="z80Zeq63Nkb3A3HY7hVA-23" value="&lt;font style=&quot;&quot;&gt;&lt;font style=&quot;font-size: 16px;&quot;&gt;COM625 - Synoptic Work Based IT Project&lt;/font&gt;&lt;span style=&quot;font-size: 16px;&quot;&gt;&lt;br&gt;&lt;/span&gt;&lt;/font&gt;" style="rounded=1;whiteSpace=wrap;html=1;fillColor=#d5e8d4;strokeColor=#82b366;" parent="z80Zeq63Nkb3A3HY7hVA-1" vertex="1">
                    <mxGeometry x="1120" y="480" width="420" height="80" as="geometry"/>
                </mxCell>
                <mxCell id="z80Zeq63Nkb3A3HY7hVA-25" value="&lt;font style=&quot;font-size: 17px;&quot;&gt;PM&lt;/font&gt;" style="rounded=1;whiteSpace=wrap;html=1;fillColor=#d5e8d4;strokeColor=#82b366;" parent="z80Zeq63Nkb3A3HY7hVA-1" vertex="1">
                    <mxGeometry x="1340" y="430" width="200" height="40" as="geometry"/>
                </mxCell>
                <mxCell id="z80Zeq63Nkb3A3HY7hVA-26" value="&lt;font style=&quot;font-size: 17px;&quot;&gt;AM&lt;/font&gt;" style="rounded=1;whiteSpace=wrap;html=1;fillColor=#d5e8d4;strokeColor=#82b366;" parent="z80Zeq63Nkb3A3HY7hVA-1" vertex="1">
                    <mxGeometry x="1120" y="430" width="200" height="40" as="geometry"/>
                </mxCell>
                <mxCell id="z80Zeq63Nkb3A3HY7hVA-27" value="&lt;font style=&quot;font-size: 17px&quot;&gt;&lt;b&gt;Thursday L6 - SOFTWARE&amp;nbsp;&lt;/b&gt;&lt;/font&gt;" style="rounded=1;whiteSpace=wrap;html=1;fillColor=#b1ddf0;strokeColor=#10739e;" parent="z80Zeq63Nkb3A3HY7hVA-1" vertex="1">
                    <mxGeometry x="1120" y="600" width="420" height="40" as="geometry"/>
                </mxCell>
                <mxCell id="z80Zeq63Nkb3A3HY7hVA-28" value="&lt;font style=&quot;&quot;&gt;&lt;font style=&quot;font-size: 16px;&quot;&gt;COM625 - Synoptic Work Based IT Project&lt;/font&gt;&lt;span style=&quot;font-size: 16px;&quot;&gt;&lt;br&gt;&lt;/span&gt;&lt;/font&gt;" style="rounded=1;whiteSpace=wrap;html=1;fillColor=#b1ddf0;strokeColor=#10739e;" parent="z80Zeq63Nkb3A3HY7hVA-1" vertex="1">
                    <mxGeometry x="1120" y="700" width="420" height="80" as="geometry"/>
                </mxCell>
                <mxCell id="z80Zeq63Nkb3A3HY7hVA-30" value="&lt;font style=&quot;font-size: 17px;&quot;&gt;PM&lt;/font&gt;" style="rounded=1;whiteSpace=wrap;html=1;fillColor=#b1ddf0;strokeColor=#10739e;" parent="z80Zeq63Nkb3A3HY7hVA-1" vertex="1">
                    <mxGeometry x="1340" y="650" width="200" height="40" as="geometry"/>
                </mxCell>
                <mxCell id="z80Zeq63Nkb3A3HY7hVA-31" value="&lt;font style=&quot;font-size: 17px;&quot;&gt;AM&lt;/font&gt;" style="rounded=1;whiteSpace=wrap;html=1;fillColor=#b1ddf0;strokeColor=#10739e;" parent="z80Zeq63Nkb3A3HY7hVA-1" vertex="1">
                    <mxGeometry x="1120" y="650" width="200" height="40" as="geometry"/>
                </mxCell>
                <mxCell id="z80Zeq63Nkb3A3HY7hVA-37" value="&lt;font style=&quot;font-size: 17px;&quot;&gt;&lt;b&gt;Thursday L6 - NETWORKING&lt;/b&gt;&lt;/font&gt;" style="rounded=1;whiteSpace=wrap;html=1;fillColor=#e1d5e7;strokeColor=#9673a6;" parent="z80Zeq63Nkb3A3HY7hVA-1" vertex="1">
                    <mxGeometry x="1120" y="160" width="420" height="40" as="geometry"/>
                </mxCell>
                <mxCell id="z80Zeq63Nkb3A3HY7hVA-38" value="&lt;font style=&quot;&quot;&gt;&lt;font style=&quot;font-size: 16px;&quot;&gt;COM625 - Synoptic Work Based IT Project&lt;/font&gt;&lt;span style=&quot;font-size: 16px;&quot;&gt;&lt;br&gt;&lt;/span&gt;&lt;/font&gt;" style="rounded=1;whiteSpace=wrap;html=1;fillColor=#e1d5e7;strokeColor=#9673a6;" parent="z80Zeq63Nkb3A3HY7hVA-1" vertex="1">
                    <mxGeometry x="1120" y="260" width="420" height="80" as="geometry"/>
                </mxCell>
                <mxCell id="z80Zeq63Nkb3A3HY7hVA-40" value="&lt;font style=&quot;font-size: 17px;&quot;&gt;PM&lt;/font&gt;" style="rounded=1;whiteSpace=wrap;html=1;fillColor=#e1d5e7;strokeColor=#9673a6;" parent="z80Zeq63Nkb3A3HY7hVA-1" vertex="1">
                    <mxGeometry x="1340" y="210" width="200" height="40" as="geometry"/>
                </mxCell>
                <mxCell id="z80Zeq63Nkb3A3HY7hVA-41" value="&lt;font style=&quot;font-size: 17px;&quot;&gt;AM&lt;/font&gt;" style="rounded=1;whiteSpace=wrap;html=1;fillColor=#e1d5e7;strokeColor=#9673a6;" parent="z80Zeq63Nkb3A3HY7hVA-1" vertex="1">
                    <mxGeometry x="1120" y="210" width="200" height="40" as="geometry"/>
                </mxCell>
                <mxCell id="z80Zeq63Nkb3A3HY7hVA-47" value="" style="rounded=0;whiteSpace=wrap;html=1;" parent="z80Zeq63Nkb3A3HY7hVA-1" vertex="1">
                    <mxGeometry x="240" y="60" width="1300" height="60" as="geometry"/>
                </mxCell>
                <mxCell id="z80Zeq63Nkb3A3HY7hVA-48" value="BDATS DEGREE APPRENTICESHIP DELIVERY - SEMESTER 3 (May-Sept)" style="text;html=1;align=center;verticalAlign=middle;resizable=0;points=[];autosize=1;strokeColor=none;fillColor=none;fontSize=29;fontStyle=1" parent="z80Zeq63Nkb3A3HY7hVA-1" vertex="1">
                    <mxGeometry x="369" y="65" width="1030" height="50" as="geometry"/>
                </mxCell>
            </root>
        </mxGraphModel>
    </diagram>
    <diagram name="BDATS_SOFTWARE" id="IDxoDhFUZz8goqclk6p1">
        <mxGraphModel dx="2309" dy="1216" grid="1" gridSize="10" guides="1" tooltips="1" connect="1" arrows="1" fold="1" page="1" pageScale="1" pageWidth="827" pageHeight="1169" math="0" shadow="0">
            <root>
                <mxCell id="1_NoqtApiibmHGhhlHiK-0"/>
                <mxCell id="1_NoqtApiibmHGhhlHiK-1" parent="1_NoqtApiibmHGhhlHiK-0"/>
                <mxCell id="1_NoqtApiibmHGhhlHiK-2" value="" style="rounded=1;whiteSpace=wrap;html=1;strokeWidth=2;" parent="1_NoqtApiibmHGhhlHiK-1" vertex="1">
                    <mxGeometry x="42" y="470" width="1580" height="170" as="geometry"/>
                </mxCell>
                <mxCell id="1_NoqtApiibmHGhhlHiK-3" value="" style="rounded=1;whiteSpace=wrap;html=1;strokeWidth=2;" parent="1_NoqtApiibmHGhhlHiK-1" vertex="1">
                    <mxGeometry x="42" y="280" width="1580" height="170" as="geometry"/>
                </mxCell>
                <mxCell id="1_NoqtApiibmHGhhlHiK-4" value="" style="rounded=1;whiteSpace=wrap;html=1;strokeWidth=2;" parent="1_NoqtApiibmHGhhlHiK-1" vertex="1">
                    <mxGeometry x="42" y="90" width="1580" height="170" as="geometry"/>
                </mxCell>
                <mxCell id="1_NoqtApiibmHGhhlHiK-5" value="&lt;font&gt;&lt;span style=&quot;font-size: 16px&quot;&gt;COM411&lt;br&gt;Problem Solving through Programming)&lt;/span&gt;&lt;/font&gt;" style="rounded=1;whiteSpace=wrap;html=1;fillColor=#dae8fc;strokeColor=#6c8ebf;strokeWidth=2;" parent="1_NoqtApiibmHGhhlHiK-1" vertex="1">
                    <mxGeometry x="202" y="160" width="210" height="80" as="geometry"/>
                </mxCell>
                <mxCell id="1_NoqtApiibmHGhhlHiK-6" value="&lt;span style=&quot;font-size: 16px&quot;&gt;COM412&lt;br&gt;Introduction to Networks&lt;br&gt;&amp;amp; Security&lt;/span&gt;" style="rounded=1;whiteSpace=wrap;html=1;fillColor=#dae8fc;strokeColor=#6c8ebf;strokeWidth=2;" parent="1_NoqtApiibmHGhhlHiK-1" vertex="1">
                    <mxGeometry x="432" y="160" width="210" height="80" as="geometry"/>
                </mxCell>
                <mxCell id="1_NoqtApiibmHGhhlHiK-7" value="&lt;font style=&quot;font-size: 17px;&quot;&gt;&lt;b&gt;SEMESTER 1 (Sept-Jan)&lt;/b&gt;&lt;/font&gt;" style="rounded=1;whiteSpace=wrap;html=1;fillColor=#dae8fc;strokeColor=#6c8ebf;strokeWidth=2;" parent="1_NoqtApiibmHGhhlHiK-1" vertex="1">
                    <mxGeometry x="202" y="110" width="440" height="40" as="geometry"/>
                </mxCell>
                <mxCell id="1_NoqtApiibmHGhhlHiK-9" value="&lt;font style=&quot;font-size: 16px;&quot;&gt;COM417&lt;br style=&quot;border-color: var(--border-color);&quot;&gt;Introduction to Databases&lt;/font&gt;" style="rounded=1;whiteSpace=wrap;html=1;fillColor=#dae8fc;strokeColor=#6c8ebf;strokeWidth=2;" parent="1_NoqtApiibmHGhhlHiK-1" vertex="1">
                    <mxGeometry x="910" y="160" width="212" height="80" as="geometry"/>
                </mxCell>
                <mxCell id="1_NoqtApiibmHGhhlHiK-10" value="&lt;b style=&quot;border-color: var(--border-color); font-size: 17px;&quot;&gt;SEMESTER 2 (Jan-May)&lt;/b&gt;" style="rounded=1;whiteSpace=wrap;html=1;fillColor=#dae8fc;strokeColor=#6c8ebf;strokeWidth=2;" parent="1_NoqtApiibmHGhhlHiK-1" vertex="1">
                    <mxGeometry x="682" y="110" width="440" height="40" as="geometry"/>
                </mxCell>
                <mxCell id="1_NoqtApiibmHGhhlHiK-11" value="&lt;font style=&quot;font-size: 16px;&quot;&gt;COM423&lt;br style=&quot;border-color: var(--border-color);&quot;&gt;Systems Analysis &amp;amp; Design&amp;nbsp;&lt;span style=&quot;font-size: 16px&quot;&gt;&lt;br&gt;&lt;/span&gt;&lt;/font&gt;" style="rounded=1;whiteSpace=wrap;html=1;fillColor=#dae8fc;strokeColor=#6c8ebf;strokeWidth=2;" parent="1_NoqtApiibmHGhhlHiK-1" vertex="1">
                    <mxGeometry x="1162" y="160" width="210" height="80" as="geometry"/>
                </mxCell>
                <mxCell id="1_NoqtApiibmHGhhlHiK-12" value="&lt;font style=&quot;font-size: 16px;&quot;&gt;COM421&lt;br style=&quot;border-color: var(--border-color);&quot;&gt;Data Structures,&lt;br style=&quot;border-color: var(--border-color);&quot;&gt;Algorithms &amp;amp; Maths&lt;/font&gt;" style="rounded=1;whiteSpace=wrap;html=1;fillColor=#dae8fc;strokeColor=#6c8ebf;strokeWidth=2;" parent="1_NoqtApiibmHGhhlHiK-1" vertex="1">
                    <mxGeometry x="1392" y="160" width="210" height="80" as="geometry"/>
                </mxCell>
                <mxCell id="1_NoqtApiibmHGhhlHiK-13" value="&lt;b style=&quot;border-color: var(--border-color); font-size: 17px;&quot;&gt;SEMESTER 3 (May-Sept)&lt;/b&gt;" style="rounded=1;whiteSpace=wrap;html=1;fillColor=#dae8fc;strokeColor=#6c8ebf;strokeWidth=2;" parent="1_NoqtApiibmHGhhlHiK-1" vertex="1">
                    <mxGeometry x="1162" y="110" width="440" height="40" as="geometry"/>
                </mxCell>
                <mxCell id="1_NoqtApiibmHGhhlHiK-15" value="&lt;span style=&quot;font-size: 16px;&quot;&gt;COM519&lt;br&gt;Advanced Databases&lt;/span&gt;" style="rounded=1;whiteSpace=wrap;html=1;fillColor=#e1d5e7;strokeColor=#9673a6;strokeWidth=2;" parent="1_NoqtApiibmHGhhlHiK-1" vertex="1">
                    <mxGeometry x="432" y="350" width="210" height="80" as="geometry"/>
                </mxCell>
                <mxCell id="1_NoqtApiibmHGhhlHiK-16" value="&lt;font&gt;&lt;span style=&quot;font-size: 16px;&quot;&gt;COM624&lt;/span&gt;&lt;br style=&quot;font-size: 16px;&quot;&gt;&lt;span style=&quot;font-size: 16px;&quot;&gt;&amp;nbsp;Machine Learning&lt;/span&gt;&lt;span style=&quot;font-size: 16px&quot;&gt;&lt;br&gt;&lt;/span&gt;&lt;/font&gt;" style="rounded=1;whiteSpace=wrap;html=1;fillColor=#fff2cc;strokeColor=#d6b656;strokeWidth=2;" parent="1_NoqtApiibmHGhhlHiK-1" vertex="1">
                    <mxGeometry x="202" y="540" width="210" height="80" as="geometry"/>
                </mxCell>
                <mxCell id="1_NoqtApiibmHGhhlHiK-18" value="&lt;font style=&quot;font-size: 17px;&quot;&gt;&lt;b&gt;SEMESTER 1 (Sept-Jan)&lt;/b&gt;&lt;/font&gt;" style="rounded=1;whiteSpace=wrap;html=1;fillColor=#e1d5e7;strokeColor=#9673a6;strokeWidth=2;" parent="1_NoqtApiibmHGhhlHiK-1" vertex="1">
                    <mxGeometry x="202" y="300" width="440" height="40" as="geometry"/>
                </mxCell>
                <mxCell id="1_NoqtApiibmHGhhlHiK-19" value="&lt;b style=&quot;border-color: var(--border-color); font-size: 17px;&quot;&gt;SEMESTER 2 (Jan-May)&lt;/b&gt;" style="rounded=1;whiteSpace=wrap;html=1;fillColor=#e1d5e7;strokeColor=#9673a6;strokeWidth=2;" parent="1_NoqtApiibmHGhhlHiK-1" vertex="1">
                    <mxGeometry x="682" y="300" width="440" height="40" as="geometry"/>
                </mxCell>
                <mxCell id="1_NoqtApiibmHGhhlHiK-20" value="&lt;b style=&quot;border-color: var(--border-color); font-size: 17px;&quot;&gt;SEMESTER 3 (May-Sept)&lt;/b&gt;" style="rounded=1;whiteSpace=wrap;html=1;fillColor=#e1d5e7;strokeColor=#9673a6;strokeWidth=2;" parent="1_NoqtApiibmHGhhlHiK-1" vertex="1">
                    <mxGeometry x="1162" y="300" width="440" height="40" as="geometry"/>
                </mxCell>
                <mxCell id="1_NoqtApiibmHGhhlHiK-21" value="&lt;font style=&quot;font-size: 17px;&quot;&gt;&lt;b&gt;SEMESTER 1 (Sept-Jan)&lt;/b&gt;&lt;/font&gt;" style="rounded=1;whiteSpace=wrap;html=1;fillColor=#fff2cc;strokeColor=#d6b656;strokeWidth=2;" parent="1_NoqtApiibmHGhhlHiK-1" vertex="1">
                    <mxGeometry x="202" y="490" width="440" height="40" as="geometry"/>
                </mxCell>
                <mxCell id="1_NoqtApiibmHGhhlHiK-22" value="&lt;b style=&quot;border-color: var(--border-color); font-size: 17px;&quot;&gt;SEMESTER 2 (Jan-May)&lt;/b&gt;" style="rounded=1;whiteSpace=wrap;html=1;fillColor=#fff2cc;strokeColor=#d6b656;strokeWidth=2;" parent="1_NoqtApiibmHGhhlHiK-1" vertex="1">
                    <mxGeometry x="682" y="490" width="440" height="40" as="geometry"/>
                </mxCell>
                <mxCell id="1_NoqtApiibmHGhhlHiK-23" value="&lt;b style=&quot;border-color: var(--border-color); font-size: 17px;&quot;&gt;SEMESTER 3 (May-Sept)&lt;/b&gt;" style="rounded=1;whiteSpace=wrap;html=1;fillColor=#fff2cc;strokeColor=#d6b656;strokeWidth=2;" parent="1_NoqtApiibmHGhhlHiK-1" vertex="1">
                    <mxGeometry x="1162" y="490" width="440" height="40" as="geometry"/>
                </mxCell>
                <mxCell id="1_NoqtApiibmHGhhlHiK-24" value="&lt;b style=&quot;font-size: 22px;&quot;&gt;Level 4&lt;br&gt;(Year 1)&lt;/b&gt;" style="text;html=1;align=center;verticalAlign=middle;whiteSpace=wrap;rounded=0;" parent="1_NoqtApiibmHGhhlHiK-1" vertex="1">
                    <mxGeometry x="62" y="145" width="110" height="60" as="geometry"/>
                </mxCell>
                <mxCell id="1_NoqtApiibmHGhhlHiK-25" value="&lt;b style=&quot;font-size: 22px;&quot;&gt;Level 5&lt;br&gt;(Year 2)&lt;/b&gt;" style="text;html=1;strokeColor=none;fillColor=none;align=center;verticalAlign=middle;whiteSpace=wrap;rounded=0;" parent="1_NoqtApiibmHGhhlHiK-1" vertex="1">
                    <mxGeometry x="72" y="335" width="110" height="60" as="geometry"/>
                </mxCell>
                <mxCell id="1_NoqtApiibmHGhhlHiK-26" value="&lt;b style=&quot;font-size: 22px;&quot;&gt;Level 6&lt;br&gt;(Year 3)&lt;/b&gt;" style="text;html=1;strokeColor=none;fillColor=none;align=center;verticalAlign=middle;whiteSpace=wrap;rounded=0;" parent="1_NoqtApiibmHGhhlHiK-1" vertex="1">
                    <mxGeometry x="72" y="525" width="110" height="60" as="geometry"/>
                </mxCell>
                <mxCell id="1_NoqtApiibmHGhhlHiK-29" value="&lt;font style=&quot;font-size: 16px;&quot;&gt;COM617&lt;br style=&quot;border-color: var(--border-color);&quot;&gt;&amp;nbsp;Industrial Consulting Project&lt;br&gt;&lt;/font&gt;" style="rounded=1;whiteSpace=wrap;html=1;fillColor=#fff2cc;strokeColor=#d6b656;strokeWidth=2;" parent="1_NoqtApiibmHGhhlHiK-1" vertex="1">
                    <mxGeometry x="682" y="545" width="210" height="80" as="geometry"/>
                </mxCell>
                <mxCell id="1_NoqtApiibmHGhhlHiK-30" value="&lt;font style=&quot;font-size: 16px;&quot;&gt;COM618&lt;br&gt;Data Science&lt;/font&gt;&lt;span style=&quot;font-size: 16px;&quot;&gt;&lt;br&gt;&lt;/span&gt;" style="rounded=1;whiteSpace=wrap;html=1;fillColor=#fff2cc;strokeColor=#d6b656;strokeWidth=2;" parent="1_NoqtApiibmHGhhlHiK-1" vertex="1">
                    <mxGeometry x="912" y="545" width="210" height="80" as="geometry"/>
                </mxCell>
                <mxCell id="1_NoqtApiibmHGhhlHiK-31" value="&lt;font style=&quot;font-size: 16px;&quot;&gt;COM532&lt;br style=&quot;border-color: var(--border-color);&quot;&gt;Work Based IT Project Management&lt;span style=&quot;font-size: 16px&quot;&gt;&lt;br&gt;&lt;/span&gt;&lt;/font&gt;" style="rounded=1;whiteSpace=wrap;html=1;fillColor=#e1d5e7;strokeColor=#9673a6;strokeWidth=2;" parent="1_NoqtApiibmHGhhlHiK-1" vertex="1">
                    <mxGeometry x="1162" y="350" width="210" height="80" as="geometry"/>
                </mxCell>
                <mxCell id="1_NoqtApiibmHGhhlHiK-32" value="&lt;font style=&quot;font-size: 16px;&quot;&gt;COM530&lt;br style=&quot;border-color: var(--border-color);&quot;&gt;Work Based Business Organisation&lt;/font&gt;" style="rounded=1;whiteSpace=wrap;html=1;fillColor=#e1d5e7;strokeColor=#9673a6;strokeWidth=2;" parent="1_NoqtApiibmHGhhlHiK-1" vertex="1">
                    <mxGeometry x="1392" y="350" width="210" height="80" as="geometry"/>
                </mxCell>
                <mxCell id="1_NoqtApiibmHGhhlHiK-33" value="&lt;font style=&quot;font-size: 16px;&quot;&gt;COMXXX (Zero Credit)&lt;br&gt;Digital Technology Solutions Gateway&lt;/font&gt;" style="rounded=1;whiteSpace=wrap;html=1;fillColor=#fff2cc;strokeColor=#d6b656;strokeWidth=2;" parent="1_NoqtApiibmHGhhlHiK-1" vertex="1">
                    <mxGeometry x="1162" y="540" width="440" height="80" as="geometry"/>
                </mxCell>
                <mxCell id="1_NoqtApiibmHGhhlHiK-34" value="" style="rounded=1;whiteSpace=wrap;html=1;strokeWidth=2;" parent="1_NoqtApiibmHGhhlHiK-1" vertex="1">
                    <mxGeometry x="42" y="670" width="1580" height="170" as="geometry"/>
                </mxCell>
                <mxCell id="1_NoqtApiibmHGhhlHiK-35" value="&lt;font style=&quot;font-size: 16px;&quot;&gt;COMXXX (40 Credit)&lt;br&gt;Digital &amp;amp; Technology Solutions EPA&lt;br&gt;&lt;/font&gt;" style="rounded=1;whiteSpace=wrap;html=1;fillColor=#60a917;strokeColor=#2D7600;strokeWidth=2;fontColor=#ffffff;" parent="1_NoqtApiibmHGhhlHiK-1" vertex="1">
                    <mxGeometry x="202" y="740" width="440" height="80" as="geometry"/>
                </mxCell>
                <mxCell id="1_NoqtApiibmHGhhlHiK-36" value="&lt;font style=&quot;font-size: 17px;&quot;&gt;&lt;b&gt;Sept-Jan&lt;/b&gt;&lt;/font&gt;" style="rounded=1;whiteSpace=wrap;html=1;fillColor=#60a917;strokeColor=#2D7600;strokeWidth=2;fontColor=#ffffff;" parent="1_NoqtApiibmHGhhlHiK-1" vertex="1">
                    <mxGeometry x="202" y="690" width="440" height="40" as="geometry"/>
                </mxCell>
                <mxCell id="1_NoqtApiibmHGhhlHiK-37" value="&lt;b style=&quot;font-size: 22px;&quot;&gt;EPA&lt;br&gt;&lt;/b&gt;" style="text;html=1;strokeColor=none;fillColor=none;align=center;verticalAlign=middle;whiteSpace=wrap;rounded=0;" parent="1_NoqtApiibmHGhhlHiK-1" vertex="1">
                    <mxGeometry x="72" y="725" width="110" height="60" as="geometry"/>
                </mxCell>
                <mxCell id="1_NoqtApiibmHGhhlHiK-38" value="&lt;font style=&quot;font-size: 36px;&quot;&gt;&lt;b&gt;BDATS Software Engineer - New Standard 2023 Version 1.1&amp;nbsp;&lt;/b&gt;&lt;/font&gt;" style="text;html=1;align=center;verticalAlign=middle;resizable=0;points=[];autosize=1;strokeColor=none;fillColor=none;" parent="1_NoqtApiibmHGhhlHiK-1" vertex="1">
                    <mxGeometry x="42" y="10" width="1040" height="60" as="geometry"/>
                </mxCell>
                <mxCell id="FyI0z2VFPIabcOspeWA6-0" value="&lt;font&gt;&lt;span style=&quot;font-size: 16px&quot;&gt;COM528&lt;br&gt;&amp;nbsp;Object orientated&lt;br&gt;&lt;/span&gt;&lt;/font&gt;" style="rounded=1;whiteSpace=wrap;html=1;fillColor=#e1d5e7;strokeColor=#9673a6;strokeWidth=2;" parent="1_NoqtApiibmHGhhlHiK-1" vertex="1">
                    <mxGeometry x="202" y="350" width="208" height="80" as="geometry"/>
                </mxCell>
                <mxCell id="FyI0z2VFPIabcOspeWA6-5" value="&lt;span style=&quot;font-size: 16px;&quot;&gt;COM619&lt;br&gt;Dev Ops&lt;/span&gt;" style="rounded=1;whiteSpace=wrap;html=1;fillColor=#fff2cc;strokeColor=#d6b656;strokeWidth=2;" parent="1_NoqtApiibmHGhhlHiK-1" vertex="1">
                    <mxGeometry x="430" y="540" width="212" height="80" as="geometry"/>
                </mxCell>
                <mxCell id="wze11_uXiys3I81di1LD-0" value="&lt;font style=&quot;font-size: 16px;&quot;&gt;COM422&lt;br&gt;Software Testing &amp;amp; Reliability Engineering&lt;span style=&quot;font-size: 16px&quot;&gt;&lt;br&gt;&lt;/span&gt;&lt;/font&gt;" style="rounded=1;whiteSpace=wrap;html=1;fillColor=#dae8fc;strokeColor=#6c8ebf;strokeWidth=2;" parent="1_NoqtApiibmHGhhlHiK-1" vertex="1">
                    <mxGeometry x="682" y="160" width="208" height="80" as="geometry"/>
                </mxCell>
                <mxCell id="eyPDoyy5ns5S91ZpYRCQ-0" value="&lt;font style=&quot;font-size: 16px;&quot;&gt;COM527&lt;br&gt;Mobile Application Dev&lt;span style=&quot;font-size: 16px&quot;&gt;&lt;br&gt;&lt;/span&gt;&lt;/font&gt;" style="rounded=1;whiteSpace=wrap;html=1;fillColor=#e1d5e7;strokeColor=#9673a6;strokeWidth=2;" parent="1_NoqtApiibmHGhhlHiK-1" vertex="1">
                    <mxGeometry x="682" y="350" width="208" height="80" as="geometry"/>
                </mxCell>
                <mxCell id="eyPDoyy5ns5S91ZpYRCQ-1" value="&lt;font style=&quot;font-size: 16px;&quot;&gt;COM526&lt;br&gt;Introduction to AI&lt;/font&gt;" style="rounded=1;whiteSpace=wrap;html=1;fillColor=#e1d5e7;strokeColor=#9673a6;strokeWidth=2;" parent="1_NoqtApiibmHGhhlHiK-1" vertex="1">
                    <mxGeometry x="910" y="350" width="212" height="80" as="geometry"/>
                </mxCell>
            </root>
        </mxGraphModel>
    </diagram>
    <diagram name="BDATS_NETWORK" id="daNHZ3TRiOjiiwbFkDUF">
        <mxGraphModel dx="2078" dy="1094" grid="1" gridSize="10" guides="1" tooltips="1" connect="1" arrows="1" fold="1" page="1" pageScale="1" pageWidth="827" pageHeight="1169" math="0" shadow="0">
            <root>
                <mxCell id="sV7EwwiW8VQXavG21FDw-0"/>
                <mxCell id="sV7EwwiW8VQXavG21FDw-1" parent="sV7EwwiW8VQXavG21FDw-0"/>
                <mxCell id="sV7EwwiW8VQXavG21FDw-2" value="" style="rounded=1;whiteSpace=wrap;html=1;strokeWidth=2;" parent="sV7EwwiW8VQXavG21FDw-1" vertex="1">
                    <mxGeometry x="42" y="470" width="1580" height="170" as="geometry"/>
                </mxCell>
                <mxCell id="sV7EwwiW8VQXavG21FDw-3" value="" style="rounded=1;whiteSpace=wrap;html=1;strokeWidth=2;" parent="sV7EwwiW8VQXavG21FDw-1" vertex="1">
                    <mxGeometry x="42" y="280" width="1580" height="170" as="geometry"/>
                </mxCell>
                <mxCell id="sV7EwwiW8VQXavG21FDw-17" value="&lt;b style=&quot;border-color: var(--border-color); font-size: 17px;&quot;&gt;SEMESTER 3 (May-Sept)&lt;/b&gt;" style="rounded=1;whiteSpace=wrap;html=1;fillColor=#e1d5e7;strokeColor=#9673a6;strokeWidth=2;" parent="sV7EwwiW8VQXavG21FDw-1" vertex="1">
                    <mxGeometry x="1162" y="300" width="440" height="40" as="geometry"/>
                </mxCell>
                <mxCell id="sV7EwwiW8VQXavG21FDw-18" value="&lt;font style=&quot;font-size: 17px;&quot;&gt;&lt;b&gt;SEMESTER 1 (Sept-Jan)&lt;/b&gt;&lt;/font&gt;" style="rounded=1;whiteSpace=wrap;html=1;fillColor=#fff2cc;strokeColor=#d6b656;strokeWidth=2;" parent="sV7EwwiW8VQXavG21FDw-1" vertex="1">
                    <mxGeometry x="202" y="490" width="440" height="40" as="geometry"/>
                </mxCell>
                <mxCell id="sV7EwwiW8VQXavG21FDw-19" value="&lt;b style=&quot;border-color: var(--border-color); font-size: 17px;&quot;&gt;SEMESTER 2 (Jan-May)&lt;/b&gt;" style="rounded=1;whiteSpace=wrap;html=1;fillColor=#fff2cc;strokeColor=#d6b656;strokeWidth=2;" parent="sV7EwwiW8VQXavG21FDw-1" vertex="1">
                    <mxGeometry x="682" y="490" width="440" height="40" as="geometry"/>
                </mxCell>
                <mxCell id="sV7EwwiW8VQXavG21FDw-20" value="&lt;b style=&quot;border-color: var(--border-color); font-size: 17px;&quot;&gt;SEMESTER 3 (May-Sept)&lt;/b&gt;" style="rounded=1;whiteSpace=wrap;html=1;fillColor=#fff2cc;strokeColor=#d6b656;strokeWidth=2;" parent="sV7EwwiW8VQXavG21FDw-1" vertex="1">
                    <mxGeometry x="1162" y="490" width="440" height="40" as="geometry"/>
                </mxCell>
                <mxCell id="sV7EwwiW8VQXavG21FDw-22" value="&lt;b style=&quot;font-size: 22px;&quot;&gt;Level 5&lt;br&gt;(Year 2)&lt;/b&gt;" style="text;html=1;strokeColor=none;fillColor=none;align=center;verticalAlign=middle;whiteSpace=wrap;rounded=0;" parent="sV7EwwiW8VQXavG21FDw-1" vertex="1">
                    <mxGeometry x="72" y="335" width="110" height="60" as="geometry"/>
                </mxCell>
                <mxCell id="sV7EwwiW8VQXavG21FDw-23" value="&lt;b style=&quot;font-size: 22px;&quot;&gt;Level 6&lt;br&gt;(Year 3)&lt;/b&gt;" style="text;html=1;strokeColor=none;fillColor=none;align=center;verticalAlign=middle;whiteSpace=wrap;rounded=0;" parent="sV7EwwiW8VQXavG21FDw-1" vertex="1">
                    <mxGeometry x="72" y="525" width="110" height="60" as="geometry"/>
                </mxCell>
                <mxCell id="sV7EwwiW8VQXavG21FDw-24" value="&lt;font style=&quot;font-size: 16px;&quot;&gt;COM617&lt;br style=&quot;border-color: var(--border-color);&quot;&gt;&amp;nbsp;Industrial Consulting Project&lt;br&gt;&lt;/font&gt;" style="rounded=1;whiteSpace=wrap;html=1;fillColor=#fff2cc;strokeColor=#d6b656;strokeWidth=2;" parent="sV7EwwiW8VQXavG21FDw-1" vertex="1">
                    <mxGeometry x="682" y="545" width="210" height="80" as="geometry"/>
                </mxCell>
                <mxCell id="sV7EwwiW8VQXavG21FDw-26" value="&lt;font style=&quot;font-size: 16px;&quot;&gt;COM532&lt;br style=&quot;border-color: var(--border-color);&quot;&gt;Work Based IT Project Management&lt;span style=&quot;font-size: 16px&quot;&gt;&lt;br&gt;&lt;/span&gt;&lt;/font&gt;" style="rounded=1;whiteSpace=wrap;html=1;fillColor=#e1d5e7;strokeColor=#9673a6;strokeWidth=2;" parent="sV7EwwiW8VQXavG21FDw-1" vertex="1">
                    <mxGeometry x="1162" y="350" width="210" height="80" as="geometry"/>
                </mxCell>
                <mxCell id="sV7EwwiW8VQXavG21FDw-27" value="&lt;font style=&quot;font-size: 16px;&quot;&gt;COM530&lt;br style=&quot;border-color: var(--border-color);&quot;&gt;Work Based Business Organisation&lt;/font&gt;" style="rounded=1;whiteSpace=wrap;html=1;fillColor=#e1d5e7;strokeColor=#9673a6;strokeWidth=2;" parent="sV7EwwiW8VQXavG21FDw-1" vertex="1">
                    <mxGeometry x="1392" y="350" width="210" height="80" as="geometry"/>
                </mxCell>
                <mxCell id="sV7EwwiW8VQXavG21FDw-28" value="&lt;font style=&quot;font-size: 16px;&quot;&gt;COMXXX (Zero Credit)&lt;br&gt;Digital Technology Solutions Gateway&lt;/font&gt;" style="rounded=1;whiteSpace=wrap;html=1;fillColor=#fff2cc;strokeColor=#d6b656;strokeWidth=2;" parent="sV7EwwiW8VQXavG21FDw-1" vertex="1">
                    <mxGeometry x="1162" y="540" width="440" height="80" as="geometry"/>
                </mxCell>
                <mxCell id="sV7EwwiW8VQXavG21FDw-29" value="" style="rounded=1;whiteSpace=wrap;html=1;strokeWidth=2;" parent="sV7EwwiW8VQXavG21FDw-1" vertex="1">
                    <mxGeometry x="42" y="670" width="1580" height="170" as="geometry"/>
                </mxCell>
                <mxCell id="sV7EwwiW8VQXavG21FDw-30" value="&lt;font style=&quot;font-size: 16px;&quot;&gt;COMXXX (40 Credit)&lt;br&gt;Digital &amp;amp; Technology Solutions EPA&lt;br&gt;&lt;/font&gt;" style="rounded=1;whiteSpace=wrap;html=1;fillColor=#60a917;strokeColor=#2D7600;strokeWidth=2;fontColor=#ffffff;" parent="sV7EwwiW8VQXavG21FDw-1" vertex="1">
                    <mxGeometry x="202" y="740" width="440" height="80" as="geometry"/>
                </mxCell>
                <mxCell id="sV7EwwiW8VQXavG21FDw-31" value="&lt;font style=&quot;font-size: 17px;&quot;&gt;&lt;b&gt;Sept-Jan&lt;/b&gt;&lt;/font&gt;" style="rounded=1;whiteSpace=wrap;html=1;fillColor=#60a917;strokeColor=#2D7600;strokeWidth=2;fontColor=#ffffff;" parent="sV7EwwiW8VQXavG21FDw-1" vertex="1">
                    <mxGeometry x="202" y="690" width="440" height="40" as="geometry"/>
                </mxCell>
                <mxCell id="sV7EwwiW8VQXavG21FDw-32" value="&lt;b style=&quot;font-size: 22px;&quot;&gt;EPA&lt;br&gt;&lt;/b&gt;" style="text;html=1;strokeColor=none;fillColor=none;align=center;verticalAlign=middle;whiteSpace=wrap;rounded=0;" parent="sV7EwwiW8VQXavG21FDw-1" vertex="1">
                    <mxGeometry x="72" y="725" width="110" height="60" as="geometry"/>
                </mxCell>
                <mxCell id="sV7EwwiW8VQXavG21FDw-33" value="&lt;font style=&quot;font-size: 36px;&quot;&gt;&lt;b&gt;BDATS Network Engineer - New Standard 2023 Version 1.1&amp;nbsp;&lt;/b&gt;&lt;/font&gt;" style="text;html=1;align=center;verticalAlign=middle;resizable=0;points=[];autosize=1;strokeColor=none;fillColor=none;" parent="sV7EwwiW8VQXavG21FDw-1" vertex="1">
                    <mxGeometry x="47" y="10" width="1030" height="60" as="geometry"/>
                </mxCell>
                <mxCell id="9P6Vkf4_AZJ8KC9q507G-2" value="&lt;font&gt;&lt;span style=&quot;font-size: 16px&quot;&gt;COM611&lt;br&gt;Computer Systems&lt;br&gt;&lt;/span&gt;&lt;/font&gt;" style="rounded=1;whiteSpace=wrap;html=1;fillColor=#fff2cc;strokeColor=#d6b656;strokeWidth=2;" parent="sV7EwwiW8VQXavG21FDw-1" vertex="1">
                    <mxGeometry x="202" y="545" width="200" height="80" as="geometry"/>
                </mxCell>
                <mxCell id="9P6Vkf4_AZJ8KC9q507G-3" value="&lt;span style=&quot;font-size: 16px;&quot;&gt;COM615&lt;/span&gt;&lt;br style=&quot;font-size: 16px;&quot;&gt;&lt;span style=&quot;font-size: 16px;&quot;&gt;Network Management&lt;/span&gt;" style="rounded=1;whiteSpace=wrap;html=1;fillColor=#fff2cc;strokeColor=#d6b656;strokeWidth=2;" parent="sV7EwwiW8VQXavG21FDw-1" vertex="1">
                    <mxGeometry x="422" y="545" width="200" height="80" as="geometry"/>
                </mxCell>
                <mxCell id="x6s4asIGI9qGSP67Dqck-3" value="&lt;font style=&quot;font-size: 16px;&quot;&gt;COM614&lt;br&gt;Cloud Computing&lt;/font&gt;" style="rounded=1;whiteSpace=wrap;html=1;fillColor=#fff2cc;strokeColor=#d6b656;strokeWidth=2;" parent="sV7EwwiW8VQXavG21FDw-1" vertex="1">
                    <mxGeometry x="912" y="545" width="210" height="80" as="geometry"/>
                </mxCell>
            </root>
        </mxGraphModel>
    </diagram>
    <diagram name="BDATS_CYBER" id="LuzGWg6cHDbvfz2bFtNC">
        <mxGraphModel dx="2598" dy="1368" grid="1" gridSize="10" guides="1" tooltips="1" connect="1" arrows="1" fold="1" page="1" pageScale="1" pageWidth="827" pageHeight="1169" math="0" shadow="0">
            <root>
                <mxCell id="keYp-FxEzvg4J2pBW55y-0"/>
                <mxCell id="keYp-FxEzvg4J2pBW55y-1" parent="keYp-FxEzvg4J2pBW55y-0"/>
                <mxCell id="keYp-FxEzvg4J2pBW55y-2" value="" style="rounded=1;whiteSpace=wrap;html=1;strokeWidth=2;" parent="keYp-FxEzvg4J2pBW55y-1" vertex="1">
                    <mxGeometry x="42" y="470" width="1580" height="170" as="geometry"/>
                </mxCell>
                <mxCell id="keYp-FxEzvg4J2pBW55y-3" value="" style="rounded=1;whiteSpace=wrap;html=1;strokeWidth=2;" parent="keYp-FxEzvg4J2pBW55y-1" vertex="1">
                    <mxGeometry x="42" y="280" width="1580" height="170" as="geometry"/>
                </mxCell>
                <mxCell id="keYp-FxEzvg4J2pBW55y-14" value="&lt;b style=&quot;border-color: var(--border-color); font-size: 17px;&quot;&gt;SEMESTER 3 (May-Sept)&lt;/b&gt;" style="rounded=1;whiteSpace=wrap;html=1;fillColor=#e1d5e7;strokeColor=#9673a6;strokeWidth=2;" parent="keYp-FxEzvg4J2pBW55y-1" vertex="1">
                    <mxGeometry x="1162" y="300" width="440" height="40" as="geometry"/>
                </mxCell>
                <mxCell id="keYp-FxEzvg4J2pBW55y-15" value="&lt;font style=&quot;font-size: 17px;&quot;&gt;&lt;b&gt;SEMESTER 1 (Sept-Jan)&lt;/b&gt;&lt;/font&gt;" style="rounded=1;whiteSpace=wrap;html=1;fillColor=#fff2cc;strokeColor=#d6b656;strokeWidth=2;" parent="keYp-FxEzvg4J2pBW55y-1" vertex="1">
                    <mxGeometry x="202" y="490" width="440" height="40" as="geometry"/>
                </mxCell>
                <mxCell id="keYp-FxEzvg4J2pBW55y-16" value="&lt;b style=&quot;border-color: var(--border-color); font-size: 17px;&quot;&gt;SEMESTER 2 (Jan-May)&lt;/b&gt;" style="rounded=1;whiteSpace=wrap;html=1;fillColor=#fff2cc;strokeColor=#d6b656;strokeWidth=2;" parent="keYp-FxEzvg4J2pBW55y-1" vertex="1">
                    <mxGeometry x="682" y="490" width="440" height="40" as="geometry"/>
                </mxCell>
                <mxCell id="keYp-FxEzvg4J2pBW55y-17" value="&lt;b style=&quot;border-color: var(--border-color); font-size: 17px;&quot;&gt;SEMESTER 3 (May-Sept)&lt;/b&gt;" style="rounded=1;whiteSpace=wrap;html=1;fillColor=#fff2cc;strokeColor=#d6b656;strokeWidth=2;" parent="keYp-FxEzvg4J2pBW55y-1" vertex="1">
                    <mxGeometry x="1162" y="490" width="440" height="40" as="geometry"/>
                </mxCell>
                <mxCell id="keYp-FxEzvg4J2pBW55y-19" value="&lt;b style=&quot;font-size: 22px;&quot;&gt;Level 5&lt;br&gt;(Year 2)&lt;/b&gt;" style="text;html=1;strokeColor=none;fillColor=none;align=center;verticalAlign=middle;whiteSpace=wrap;rounded=0;" parent="keYp-FxEzvg4J2pBW55y-1" vertex="1">
                    <mxGeometry x="72" y="335" width="110" height="60" as="geometry"/>
                </mxCell>
                <mxCell id="keYp-FxEzvg4J2pBW55y-20" value="&lt;b style=&quot;font-size: 22px;&quot;&gt;Level 6&lt;br&gt;(Year 3)&lt;/b&gt;" style="text;html=1;strokeColor=none;fillColor=none;align=center;verticalAlign=middle;whiteSpace=wrap;rounded=0;" parent="keYp-FxEzvg4J2pBW55y-1" vertex="1">
                    <mxGeometry x="72" y="525" width="110" height="60" as="geometry"/>
                </mxCell>
                <mxCell id="keYp-FxEzvg4J2pBW55y-21" value="&lt;font style=&quot;font-size: 16px;&quot;&gt;COM617&lt;br style=&quot;border-color: var(--border-color);&quot;&gt;&amp;nbsp;Industrial Consulting Project&lt;br&gt;&lt;/font&gt;" style="rounded=1;whiteSpace=wrap;html=1;fillColor=#fff2cc;strokeColor=#d6b656;strokeWidth=2;" parent="keYp-FxEzvg4J2pBW55y-1" vertex="1">
                    <mxGeometry x="682" y="545" width="210" height="80" as="geometry"/>
                </mxCell>
                <mxCell id="keYp-FxEzvg4J2pBW55y-22" value="&lt;font style=&quot;font-size: 16px;&quot;&gt;COM532&lt;br style=&quot;border-color: var(--border-color);&quot;&gt;Work Based IT Project Management&lt;span style=&quot;font-size: 16px&quot;&gt;&lt;br&gt;&lt;/span&gt;&lt;/font&gt;" style="rounded=1;whiteSpace=wrap;html=1;fillColor=#e1d5e7;strokeColor=#9673a6;strokeWidth=2;" parent="keYp-FxEzvg4J2pBW55y-1" vertex="1">
                    <mxGeometry x="1162" y="350" width="210" height="80" as="geometry"/>
                </mxCell>
                <mxCell id="keYp-FxEzvg4J2pBW55y-23" value="&lt;font style=&quot;font-size: 16px;&quot;&gt;COM530&lt;br style=&quot;border-color: var(--border-color);&quot;&gt;Work Based Business Organisation&lt;/font&gt;" style="rounded=1;whiteSpace=wrap;html=1;fillColor=#e1d5e7;strokeColor=#9673a6;strokeWidth=2;" parent="keYp-FxEzvg4J2pBW55y-1" vertex="1">
                    <mxGeometry x="1392" y="350" width="210" height="80" as="geometry"/>
                </mxCell>
                <mxCell id="keYp-FxEzvg4J2pBW55y-24" value="&lt;font style=&quot;font-size: 16px;&quot;&gt;COMXXX (Zero Credit)&lt;br&gt;Digital Technology Solutions Gateway&lt;/font&gt;" style="rounded=1;whiteSpace=wrap;html=1;fillColor=#fff2cc;strokeColor=#d6b656;strokeWidth=2;" parent="keYp-FxEzvg4J2pBW55y-1" vertex="1">
                    <mxGeometry x="1162" y="540" width="440" height="80" as="geometry"/>
                </mxCell>
                <mxCell id="keYp-FxEzvg4J2pBW55y-25" value="" style="rounded=1;whiteSpace=wrap;html=1;strokeWidth=2;" parent="keYp-FxEzvg4J2pBW55y-1" vertex="1">
                    <mxGeometry x="42" y="670" width="1580" height="170" as="geometry"/>
                </mxCell>
                <mxCell id="keYp-FxEzvg4J2pBW55y-26" value="&lt;font style=&quot;font-size: 16px;&quot;&gt;COMXXX (40 Credit)&lt;br&gt;Digital &amp;amp; Technology Solutions EPA&lt;br&gt;&lt;/font&gt;" style="rounded=1;whiteSpace=wrap;html=1;fillColor=#60a917;strokeColor=#2D7600;strokeWidth=2;fontColor=#ffffff;" parent="keYp-FxEzvg4J2pBW55y-1" vertex="1">
                    <mxGeometry x="202" y="740" width="440" height="80" as="geometry"/>
                </mxCell>
                <mxCell id="keYp-FxEzvg4J2pBW55y-27" value="&lt;font style=&quot;font-size: 17px;&quot;&gt;&lt;b&gt;Sept-Jan&lt;/b&gt;&lt;/font&gt;" style="rounded=1;whiteSpace=wrap;html=1;fillColor=#60a917;strokeColor=#2D7600;strokeWidth=2;fontColor=#ffffff;" parent="keYp-FxEzvg4J2pBW55y-1" vertex="1">
                    <mxGeometry x="202" y="690" width="440" height="40" as="geometry"/>
                </mxCell>
                <mxCell id="keYp-FxEzvg4J2pBW55y-28" value="&lt;b style=&quot;font-size: 22px;&quot;&gt;EPA&lt;br&gt;&lt;/b&gt;" style="text;html=1;strokeColor=none;fillColor=none;align=center;verticalAlign=middle;whiteSpace=wrap;rounded=0;" parent="keYp-FxEzvg4J2pBW55y-1" vertex="1">
                    <mxGeometry x="72" y="725" width="110" height="60" as="geometry"/>
                </mxCell>
                <mxCell id="keYp-FxEzvg4J2pBW55y-29" value="&lt;font style=&quot;font-size: 36px;&quot;&gt;&lt;b&gt;BDATS Cyber Sercurity - New Standard 2023 Version 1.1&amp;nbsp;&lt;/b&gt;&lt;/font&gt;" style="text;html=1;align=center;verticalAlign=middle;resizable=0;points=[];autosize=1;strokeColor=none;fillColor=none;" parent="keYp-FxEzvg4J2pBW55y-1" vertex="1">
                    <mxGeometry x="62" y="10" width="1000" height="60" as="geometry"/>
                </mxCell>
                <mxCell id="keYp-FxEzvg4J2pBW55y-32" value="&lt;font style=&quot;font-size: 16px;&quot;&gt;COM613&lt;br style=&quot;border-color: var(--border-color);&quot;&gt;&lt;span style=&quot;&quot;&gt;Cyber Ops&lt;/span&gt;&lt;span style=&quot;font-size: 16px&quot;&gt;&lt;br&gt;&lt;/span&gt;&lt;/font&gt;" style="rounded=1;whiteSpace=wrap;html=1;fillColor=#fff2cc;strokeColor=#d6b656;strokeWidth=2;" parent="keYp-FxEzvg4J2pBW55y-1" vertex="1">
                    <mxGeometry x="202" y="545" width="200" height="80" as="geometry"/>
                </mxCell>
                <mxCell id="keYp-FxEzvg4J2pBW55y-33" value="&lt;span style=&quot;font-size: 16px;&quot;&gt;COM615&lt;/span&gt;&lt;br style=&quot;font-size: 16px;&quot;&gt;&lt;span style=&quot;font-size: 16px;&quot;&gt;Network Management&lt;/span&gt;" style="rounded=1;whiteSpace=wrap;html=1;fillColor=#fff2cc;strokeColor=#d6b656;strokeWidth=2;" parent="keYp-FxEzvg4J2pBW55y-1" vertex="1">
                    <mxGeometry x="422" y="545" width="200" height="80" as="geometry"/>
                </mxCell>
                <mxCell id="keYp-FxEzvg4J2pBW55y-36" value="&lt;font style=&quot;font-size: 16px;&quot;&gt;COM614&lt;br&gt;Cloud Computing&lt;/font&gt;" style="rounded=1;whiteSpace=wrap;html=1;fillColor=#fff2cc;strokeColor=#d6b656;strokeWidth=2;" parent="keYp-FxEzvg4J2pBW55y-1" vertex="1">
                    <mxGeometry x="912" y="545" width="210" height="80" as="geometry"/>
                </mxCell>
            </root>
        </mxGraphModel>
    </diagram>
</mxfile>